<mxfile host="app.diagrams.net" modified="2023-12-24T22:43:48.235Z" agent="Mozilla/5.0 (Macintosh; Intel Mac OS X 10_15_7) AppleWebKit/537.36 (KHTML, like Gecko) Chrome/120.0.0.0 Safari/537.36" version="22.1.11" etag="G7JvUGZBD8e7l0q1OnNY" type="github">
  <diagram name="Страница — 1" id="5WF0044wQxZKyZhO8BZU">
    <mxGraphModel>
      <root>
        <mxCell id="0" />
        <mxCell id="1" parent="0" />
      </root>
    </mxGraphModel>
  </diagram>
</mxfile>
